<?xml version="1.0" standalone="no"?>
<!DOCTYPE svg PUBLIC "-//W3C//DTD SVG 20010904//EN"
 "http://www.w3.org/TR/2001/REC-SVG-20010904/DTD/svg10.dtd">
<svg version="1.0" xmlns="http://www.w3.org/2000/svg"
 width="300.000000pt" height="300.000000pt" viewBox="0 0 300.000000 300.000000"
 preserveAspectRatio="xMidYMid meet">
<metadata>
Created by potrace 1.11, written by Peter Selinger 2001-2013
</metadata>
<g transform="translate(0.000000,300.000000) scale(0.100000,-0.100000)"
fill="#000000" stroke="none">
<path d="M1323 2215 c-147 -45 -242 -162 -251 -305 -11 -187 51 -259 402 -464
192 -111 251 -160 281 -232 31 -74 12 -150 -52 -216 -52 -53 -113 -71 -223
-66 -168 8 -286 96 -335 249 -14 44 -25 89 -25 100 0 12 -7 19 -20 19 -19 0
-20 -7 -20 -225 0 -210 1 -225 18 -225 12 0 21 11 27 33 14 45 50 46 182 7
184 -55 317 -51 436 13 172 91 247 295 167 455 -54 107 -110 151 -408 318
-241 135 -306 213 -273 325 52 172 302 205 461 62 60 -54 95 -117 116 -213 13
-56 20 -70 35 -70 18 0 19 11 19 225 0 213 -1 225 -19 225 -11 0 -23 -12 -31
-30 -18 -43 -52 -48 -125 -21 -140 53 -269 66 -362 36z"/>
</g>
</svg>
